<?xml version="1.0" encoding="UTF-8"?>
<svg version="1.1" xmlns="http://www.w3.org/2000/svg" width="316" height="232">
<path d="M0 0 C1.30440536 -0.00101212 1.30440536 -0.00101212 2.63516235 -0.00204468 C16.04175304 0.01446761 29.08448943 0.49823647 42.25 3.25 C43.08402344 3.42160645 43.91804687 3.59321289 44.77734375 3.77001953 C72.94373716 9.76663183 98.4363504 21.28010122 120.25 40.25 C120.88550781 40.80042969 121.52101563 41.35085937 122.17578125 41.91796875 C135.70860419 54.51749356 144.80371584 72.84467825 145.6015625 91.28125 C145.85332967 102.55208363 145.67637418 113.42987102 142.25 124.25 C141.92128906 125.31734375 141.59257812 126.3846875 141.25390625 127.484375 C132.31554209 153.34068102 111.07208678 171.31780023 87.25 183.25 C64.46429076 194.32102257 38.81897551 200.32647301 13.484375 200.453125 C12.5702887 200.45882507 11.65620239 200.46452515 10.7144165 200.47039795 C8.78488296 200.4797927 6.85533377 200.48635977 4.92578125 200.49023438 C2.04917298 200.49983587 -0.82668695 200.53086907 -3.703125 200.5625 C-46.43591229 200.80542623 -88.59452466 188.45496931 -119.75 158.25 C-136.41697664 141.64452512 -143.95595538 120.97039267 -144.1875 97.8125 C-144.07822315 75.08627726 -135.41487681 57.51424757 -120.0625 41.125 C-95.547838 17.7893999 -61.7813623 5.78494713 -28.75 1.25 C-28.06905273 1.15428711 -27.38810547 1.05857422 -26.68652344 0.95996094 C-17.83380631 -0.1051137 -8.90319577 0.00620227 0 0 Z " fill="#0D057F" transform="translate(158.75,20.75)"/>
<path d="M0 0 C9.75541177 0.47203605 18.70958309 3.1828327 28 6 C29.17103271 6.35070557 29.17103271 6.35070557 30.36572266 6.70849609 C52.82829131 13.51519312 52.82829131 13.51519312 59 19 C60.00266709 21.99078812 60.13218683 24.33353401 60.0546875 27.4765625 C59.98234183 30.8147984 60.81597464 32.50397101 63 35 C66.0189767 37.34809299 67.64231236 37.98083816 71.5 38.1875 C75 39 75 39 76.3125 40.6953125 C77.11368801 42.12374638 77.90781414 43.55616107 78.6953125 44.9921875 C80.90701015 48.39581801 83.28306032 49.39787083 87 51 C88.216875 51.144375 89.43375 51.28875 90.6875 51.4375 C94.93463745 52.15871202 95.50694347 53.6223105 98 57 C101.55064527 59.34019802 103.85514558 60.12177129 108 59.75 C110.70453171 59.61580568 111.62559907 59.6754047 113.703125 61.4765625 C115.25 63.375 115.25 63.375 116.578125 65.2734375 C118.71646897 67.86999804 120.80513875 68.82993657 124.11328125 69.30078125 C129.53510646 69.32967197 133.16572556 68.46646655 138 66 C138.66 65.67 139.32 65.34 140 65 C141.134375 65.474375 142.26875 65.94875 143.4375 66.4375 C148.57475947 68.45871684 153.54384676 68.79147902 159 68 C161.04291182 66.73339467 163.04690112 65.40113616 165 64 C167.11328125 63.65234375 167.11328125 63.65234375 169.4375 63.5 C174.31703821 63.12971464 177.04515607 61.92658451 181 59 C181.45375 57.948125 181.9075 56.89625 182.375 55.8125 C182.91125 54.884375 183.4475 53.95625 184 53 C186.25626083 52.46621265 188.40114115 52.37067604 190.71484375 52.2578125 C194.26850935 51.85688612 196.32894261 50.28947776 199 48 C201.14546647 45.0407359 202.18684357 42.52119113 203 39 C203.66386719 38.90203125 204.32773438 38.8040625 205.01171875 38.703125 C211.23666084 37.64897422 215.45008265 36.52131443 219.3125 31.1875 C220.7119905 26.73457568 220.21300551 22.42504412 219 18 C261.22580645 1 261.22580645 1 276 1 C277.11713764 17.94325427 271.09269533 33.68060891 260.1796875 46.5703125 C234.51311984 75.18071588 196.02913606 90.37098664 158 93 C152.12472844 93.19416166 146.25319834 93.24501375 140.375 93.25 C139.55286011 93.25100708 138.73072021 93.25201416 137.88366699 93.25305176 C118.46964592 93.23699853 99.73335775 91.25145095 81 86 C79.79859375 85.66484375 78.5971875 85.3296875 77.359375 84.984375 C49.96662689 76.56495891 21.9027208 60.1422614 7.3125 34.609375 C5.10011895 30.21095076 3.47792674 25.68957525 2 21 C1.773125 20.33484375 1.54625 19.6696875 1.3125 18.984375 C-0.56440525 12.78016042 -0.17617507 6.42060242 0 0 Z " fill="#00BAFD" transform="translate(22,110)"/>
<path d="M0 0 C2.72045898 0.55151367 2.72045898 0.55151367 5.99609375 1.66796875 C7.19556641 2.06693359 8.39503906 2.46589844 9.63085938 2.87695312 C10.89999784 3.31305122 12.16887726 3.74990391 13.4375 4.1875 C31.12833847 10.40779733 31.12833847 10.40779733 49.625 12.375 C50.4396875 12.36992432 51.254375 12.36484863 52.09375 12.35961914 C57.45246819 12.24780084 62.17280071 11.57342828 67.1875 9.55859375 C69 9 69 9 72 10 C71.57589844 10.41773682 71.15179688 10.83547363 70.71484375 11.26586914 C68.79146059 13.18053367 66.89600799 15.12073892 65 17.0625 C64.33226563 17.71927734 63.66453125 18.37605469 62.9765625 19.05273438 C59.73616255 22.4088629 58.13145141 24.12513759 57.421875 28.84765625 C57.73099694 32.14854611 57.73099694 32.14854611 60.25 34.375 C66.60899901 38.13259032 73.86314538 37.75891644 80.875 36.0625 C86.88086835 33.51272491 91.86923172 28.94423737 97 25 C103.47103411 20.03133185 108.65850321 16.7478725 117.04296875 17.33984375 C127.67518177 19.7134818 136.18259081 29.26934336 144.10351562 36.32128906 C147.0592252 38.9375943 150.06013612 41.50003208 153.0625 44.0625 C154.21491262 45.04939876 155.36725638 46.03637792 156.51953125 47.0234375 C158.88996107 49.05179174 161.26280125 51.07729177 163.63671875 53.1015625 C166.00314127 55.11957031 168.36179586 57.14610646 170.71484375 59.1796875 C172.80944896 60.98908293 174.92276645 62.75467014 177.06640625 64.5078125 C184.48807587 70.73652527 184.48807587 70.73652527 185.4375 74.75 C185 78 185 78 183.0625 80.9375 C179.95060609 83.03326529 177.87500578 83.8696366 174.09375 83.6015625 C169.81142676 82.37119351 167.07315146 79.07860031 164 76 C155.6899699 68.04643778 155.6899699 68.04643778 146 62 C147.36399182 66.16882008 149.14465039 68.43755311 152.3515625 71.3984375 C153.20234375 72.20796875 154.053125 73.0175 154.9296875 73.8515625 C156.72684606 75.53411965 158.53157238 77.20862977 160.34375 78.875 C167.5879997 85.81098375 167.5879997 85.81098375 167.7109375 89.953125 C167 93 167 93 165 95.375 C161.31074582 97.37334602 158.18270449 98.69841077 154 98 C150.88498817 96.10075007 148.50072726 93.63695365 146 91 C144.6300556 89.55768118 143.25511453 88.12009036 141.875 86.6875 C141.27429688 86.03136719 140.67359375 85.37523437 140.0546875 84.69921875 C137.53411914 82.6147183 135.12704772 81.87256147 132 81 C133.16322516 82.48187461 134.33083611 83.9603064 135.5 85.4375 C136.58087891 86.80455078 136.58087891 86.80455078 137.68359375 88.19921875 C139.87094785 90.84396224 142.17944394 93.28288552 144.5625 95.75 C147.95663462 99.53165393 147.95663462 99.53165393 148.3125 103.375 C146.65206552 106.69586896 145.43917455 107.62433018 142 109 C139.14453125 109.37109375 139.14453125 109.37109375 136 109 C133.3671875 106.91796875 133.3671875 106.91796875 130.875 104.1875 C125.41571739 98.00180082 125.41571739 98.00180082 118 95 C120.89399006 99.04337618 123.75288204 102.88873612 127.375 106.3125 C130 109 130 109 130 112 C126.56136815 114.11608114 124.00345996 114.39249607 120 114 C117.56089151 113.15097431 115.33584291 112.12120459 113 111 C113.05800781 110.2265625 113.11601562 109.453125 113.17578125 108.65625 C113.44998782 102.32599557 113.31344153 97.7576379 109.4921875 92.5546875 C106.00995775 88.9266052 101.85325209 87.71371354 97 87 C96.87044922 86.11248047 96.87044922 86.11248047 96.73828125 85.20703125 C95.75502764 79.6773573 94.63122445 76.55419551 90 73 C86.67226053 71.05881864 84.24145374 70.98927729 80.5 71.1875 C76.73024477 71.29360238 76.28297764 71.24438978 73.25 68.625 C72.5075 67.75875 71.765 66.8925 71 66 C66.85904262 63.64972689 62.65725277 63.47937215 58 64 C57.0925 64.391875 56.185 64.78375 55.25 65.1875 C54.5075 65.455625 53.765 65.72375 53 66 C50.875 64.6875 50.875 64.6875 49 63 C44.66636408 61.55545469 39.98392092 61.03638127 35.8125 63.0625 C35.214375 63.371875 34.61625 63.68125 34 64 C29.61301701 63.52041942 25.96693197 61.67735022 22.0625 59.75 C9.63100481 53.82663342 -2.82268967 50.14580112 -16.21484375 47.11328125 C-20.1906816 46.20971755 -24.09290174 45.16415581 -28 44 C-27.71526529 27.48538658 -15.85104157 14.56862345 -4.7265625 3.55859375 C-3 2 -3 2 0 0 Z " fill="#FCFCFD" transform="translate(52,60)"/>
<path d="M0 0 C18.03985224 8.61116814 40.33989274 9.20639453 59.375 3.4375 C62.60809032 2.16998164 65.75788824 0.83411811 68.88671875 -0.671875 C71.72889848 -1.6891701 72.6594174 -1.82869427 75.375 -0.5625 C87.08630015 9.14787449 96.16006977 22.79408042 100.375 37.4375 C100.375 38.7575 100.375 40.0775 100.375 41.4375 C99.24449219 41.69402344 98.11398437 41.95054688 96.94921875 42.21484375 C86.59028247 44.64504146 76.47068183 47.57413854 66.375 50.9375 C65.26729248 51.30480225 64.15958496 51.67210449 63.01831055 52.05053711 C56.47317708 54.26484274 50.18910495 56.7562417 43.93359375 59.69726562 C41.375 60.4375 41.375 60.4375 39.23168945 59.72973633 C37.4738168 58.50627545 35.83676587 57.27168948 34.23046875 55.85546875 C33.35044189 55.08565674 33.35044189 55.08565674 32.45263672 54.30029297 C31.51701904 53.47102295 31.51701904 53.47102295 30.5625 52.625 C29.21491843 51.4439252 27.86726002 50.26293808 26.51953125 49.08203125 C25.83197754 48.47697754 25.14442383 47.87192383 24.43603516 47.24853516 C18.77876834 42.27748502 13.07624234 37.35798414 7.375 32.4375 C6.80507324 31.94475586 6.23514648 31.45201172 5.64794922 30.94433594 C-11.46775711 14.44276821 -11.46775711 14.44276821 -33 7.9375 C-42.07481565 9.66603631 -49.53775998 16.44067403 -56.58203125 22.0703125 C-65.47360012 28.98724541 -65.47360012 28.98724541 -72.3125 28.8125 C-73.43011719 28.79960938 -74.54773438 28.78671875 -75.69921875 28.7734375 C-78.625 28.4375 -78.625 28.4375 -81.625 26.4375 C-81.08633395 22.4693268 -79.23156261 20.75826273 -76.375 18.0625 C-73.77947044 15.5647612 -71.43499266 13.19877283 -69.1875 10.375 C-50.74015411 -10.77195748 -24.08139184 -11.67802436 0 0 Z " fill="#FCFCFD" transform="translate(196.625,63.5625)"/>
<path d="M0 0 C0.77553223 0.00054382 1.55106445 0.00108765 2.35009766 0.00164795 C24.14140065 0.07126339 45.12087726 3.00119464 65.6875 10.375 C66.94965332 10.82383545 66.94965332 10.82383545 68.23730469 11.28173828 C80.95517736 15.88665009 95.32677414 21.18832774 104.6875 31.375 C80.41995661 41.25467182 59.40096662 41.36460504 35.125 31.25 C34.32884277 30.90130859 33.53268555 30.55261719 32.71240234 30.19335938 C18.43990653 24.01406817 -0.18598828 22.31583733 -14.85546875 28.1015625 C-17.2509742 29.34311222 -19.23611691 30.7386506 -21.375 32.375 C-27.70043989 37.01914267 -35.91838162 37.69966684 -43.48413086 38.98950195 C-45.39861119 39.31261124 -45.39861119 39.31261124 -47.3125 40.375 C-66.56725754 41.67283449 -83.21514912 36.33461061 -101.3125 30.375 C-101.3125 29.715 -101.3125 29.055 -101.3125 28.375 C-99.27935356 26.89776764 -97.27932689 25.59442031 -95.125 24.3125 C-94.46516113 23.91909424 -93.80532227 23.52568848 -93.12548828 23.12036133 C-77.5183175 14.10713968 -60.55339646 8.08198016 -43 4.25 C-42.27796387 4.09104248 -41.55592773 3.93208496 -40.81201172 3.76831055 C-27.27164867 0.96303568 -13.79783024 -0.03684682 0 0 Z " fill="#00B9FD" transform="translate(159.3125,26.625)"/>
<path d="M0 0 C3.17599824 2.42378813 4.1826996 4.17791873 5 8 C5.4125 7.566875 5.825 7.13375 6.25 6.6875 C9.34699967 3.70110746 11.69762601 1.56017534 16.125 1.375 C20.39976284 2.06447788 22.13374284 2.78631774 25 6 C25.8125 8.75 25.8125 8.75 26 11 C26.66 10.67 27.32 10.34 28 10 C31.77396601 8.74201133 35.06073902 8.33151935 39 9 C41.8100346 10.79363911 43.50940468 12.01880935 45 15 C44.9140625 17.05859375 44.9140625 17.05859375 44.625 19.4375 C44.48964844 20.61119141 44.48964844 20.61119141 44.3515625 21.80859375 C44 24 44 24 43 27 C43.99 26.67 44.98 26.34 46 26 C50.64796219 25.46905301 53.96344284 25.35215177 58 27.875 C61.3249055 31.4077121 61.33797121 34.04920088 61.28515625 38.7421875 C60.85933373 42.11376856 59.46522826 43.74020743 57 46 C53.73360176 48.28647877 50.92528971 48.54954056 47 48 C42.86067923 45.21391871 40.28524198 42.88391952 39 38 C39 37.01 39 36.02 39 35 C38.319375 35.495 37.63875 35.99 36.9375 36.5 C33.27568094 38.36986505 31.06785405 38.50848176 27 38 C24.125 36.4375 24.125 36.4375 22 34 C21.1875 30.25 21.1875 30.25 21 27 C20.484375 27.33 19.96875 27.66 19.4375 28 C16.0739584 29.3799145 13.60761041 29.37974846 10 29 C6.59081216 26.87872756 4.21730695 24.87324937 3 21 C2.9222654 18.66796188 2.91032272 16.33160941 3 14 C2.01 14.66 1.02 15.32 0 16 C-2.15625 16.30078125 -2.15625 16.30078125 -4.5 16.3125 C-5.66015625 16.33763672 -5.66015625 16.33763672 -6.84375 16.36328125 C-9.5493061 15.90745386 -10.37852199 15.18676392 -12 13 C-12.72238405 10.01414591 -13.20927223 7.9821293 -13 5 C-9.3147153 -0.97270278 -6.71729025 -1.50559954 0 0 Z " fill="#FAFAFC" transform="translate(99,127)"/>
</svg>
